<mxfile host="65bd71144e">
    <diagram id="1TQ30tZCiZnlm1MhKEYm" name="Page-1">
        <mxGraphModel dx="1185" dy="630" grid="0" gridSize="10" guides="1" tooltips="1" connect="1" arrows="1" fold="1" page="1" pageScale="1" pageWidth="1169" pageHeight="827" math="0" shadow="0">
            <root>
                <mxCell id="0"/>
                <mxCell id="1" parent="0"/>
                <mxCell id="24" value="" style="whiteSpace=wrap;html=1;fontSize=18;fillColor=none;strokeColor=none;" vertex="1" parent="1">
                    <mxGeometry x="464" y="170" width="566" height="170" as="geometry"/>
                </mxCell>
                <mxCell id="13" style="edgeStyle=none;html=1;exitX=1;exitY=0.5;exitDx=0;exitDy=0;entryX=0;entryY=0.5;entryDx=0;entryDy=0;fontSize=18;endArrow=none;endFill=0;rounded=0;" edge="1" parent="1" source="2" target="3">
                    <mxGeometry relative="1" as="geometry"/>
                </mxCell>
                <mxCell id="2" value="&lt;font style=&quot;font-size: 18px;&quot;&gt;html&lt;/font&gt;" style="whiteSpace=wrap;html=1;fontSize=18;" vertex="1" parent="1">
                    <mxGeometry x="480" y="260" width="60" height="30" as="geometry"/>
                </mxCell>
                <mxCell id="14" style="edgeStyle=none;rounded=0;html=1;exitX=1;exitY=0.5;exitDx=0;exitDy=0;entryX=0;entryY=0.5;entryDx=0;entryDy=0;fontSize=18;endArrow=none;endFill=0;" edge="1" parent="1" source="3" target="5">
                    <mxGeometry relative="1" as="geometry"/>
                </mxCell>
                <mxCell id="20" style="edgeStyle=none;rounded=0;html=1;exitX=1;exitY=0.5;exitDx=0;exitDy=0;entryX=0;entryY=0.5;entryDx=0;entryDy=0;fontSize=18;endArrow=none;endFill=0;" edge="1" parent="1" source="3" target="6">
                    <mxGeometry relative="1" as="geometry"/>
                </mxCell>
                <mxCell id="3" value="&lt;font style=&quot;font-size: 18px;&quot;&gt;head&lt;/font&gt;" style="whiteSpace=wrap;html=1;fontSize=18;" vertex="1" parent="1">
                    <mxGeometry x="560" y="220" width="60" height="30" as="geometry"/>
                </mxCell>
                <mxCell id="19" style="edgeStyle=none;rounded=0;html=1;exitX=1;exitY=0.5;exitDx=0;exitDy=0;entryX=0;entryY=0.5;entryDx=0;entryDy=0;fontSize=18;endArrow=none;endFill=0;" edge="1" parent="1" source="4" target="9">
                    <mxGeometry relative="1" as="geometry"/>
                </mxCell>
                <mxCell id="4" value="&lt;font style=&quot;font-size: 18px;&quot;&gt;header&lt;/font&gt;" style="whiteSpace=wrap;html=1;fontSize=18;" vertex="1" parent="1">
                    <mxGeometry x="640" y="300" width="60" height="30" as="geometry"/>
                </mxCell>
                <mxCell id="5" value="&lt;font style=&quot;font-size: 18px;&quot;&gt;link&lt;/font&gt;" style="whiteSpace=wrap;html=1;fontSize=18;" vertex="1" parent="1">
                    <mxGeometry x="640" y="180" width="60" height="30" as="geometry"/>
                </mxCell>
                <mxCell id="6" value="&lt;font style=&quot;font-size: 18px;&quot;&gt;title&lt;/font&gt;" style="whiteSpace=wrap;html=1;fontSize=18;" vertex="1" parent="1">
                    <mxGeometry x="640" y="220" width="60" height="30" as="geometry"/>
                </mxCell>
                <mxCell id="18" style="edgeStyle=none;rounded=0;html=1;exitX=0;exitY=0.5;exitDx=0;exitDy=0;entryX=1;entryY=0.5;entryDx=0;entryDy=0;fontSize=18;endArrow=none;endFill=0;" edge="1" parent="1" source="7" target="3">
                    <mxGeometry relative="1" as="geometry"/>
                </mxCell>
                <mxCell id="7" value="&lt;font style=&quot;font-size: 18px;&quot;&gt;meta&lt;/font&gt;" style="whiteSpace=wrap;html=1;fontSize=18;" vertex="1" parent="1">
                    <mxGeometry x="640" y="260" width="60" height="30" as="geometry"/>
                </mxCell>
                <mxCell id="15" style="edgeStyle=none;rounded=0;html=1;exitX=0;exitY=0.5;exitDx=0;exitDy=0;entryX=1;entryY=0.5;entryDx=0;entryDy=0;fontSize=18;endArrow=none;endFill=0;" edge="1" parent="1" source="8" target="2">
                    <mxGeometry relative="1" as="geometry"/>
                </mxCell>
                <mxCell id="17" style="edgeStyle=none;rounded=0;html=1;exitX=1;exitY=0.5;exitDx=0;exitDy=0;entryX=0;entryY=0.5;entryDx=0;entryDy=0;fontSize=18;endArrow=none;endFill=0;" edge="1" parent="1" source="8" target="4">
                    <mxGeometry relative="1" as="geometry"/>
                </mxCell>
                <mxCell id="8" value="&lt;font style=&quot;font-size: 18px;&quot;&gt;body&lt;/font&gt;" style="whiteSpace=wrap;html=1;fontSize=18;" vertex="1" parent="1">
                    <mxGeometry x="560" y="300" width="60" height="30" as="geometry"/>
                </mxCell>
                <mxCell id="21" style="edgeStyle=none;rounded=0;html=1;exitX=1;exitY=0.5;exitDx=0;exitDy=0;entryX=0;entryY=0.5;entryDx=0;entryDy=0;fontSize=18;endArrow=none;endFill=0;" edge="1" parent="1" source="9" target="10">
                    <mxGeometry relative="1" as="geometry"/>
                </mxCell>
                <mxCell id="9" value="&lt;font style=&quot;font-size: 18px;&quot;&gt;section&lt;/font&gt;" style="whiteSpace=wrap;html=1;fontSize=18;" vertex="1" parent="1">
                    <mxGeometry x="720" y="300" width="60" height="30" as="geometry"/>
                </mxCell>
                <mxCell id="22" style="edgeStyle=none;rounded=0;html=1;exitX=1;exitY=0.5;exitDx=0;exitDy=0;entryX=0;entryY=0.5;entryDx=0;entryDy=0;fontSize=18;endArrow=none;endFill=0;" edge="1" parent="1" source="10" target="11">
                    <mxGeometry relative="1" as="geometry"/>
                </mxCell>
                <mxCell id="10" value="&lt;font style=&quot;font-size: 18px;&quot;&gt;div&lt;/font&gt;" style="whiteSpace=wrap;html=1;fontSize=18;" vertex="1" parent="1">
                    <mxGeometry x="800" y="300" width="60" height="30" as="geometry"/>
                </mxCell>
                <mxCell id="23" style="edgeStyle=none;rounded=0;html=1;exitX=1;exitY=0.5;exitDx=0;exitDy=0;entryX=0;entryY=0.5;entryDx=0;entryDy=0;fontSize=18;endArrow=none;endFill=0;" edge="1" parent="1" source="11" target="12">
                    <mxGeometry relative="1" as="geometry"/>
                </mxCell>
                <mxCell id="11" value="&lt;font style=&quot;font-size: 18px;&quot;&gt;h3&lt;/font&gt;" style="whiteSpace=wrap;html=1;fontSize=18;" vertex="1" parent="1">
                    <mxGeometry x="880" y="300" width="60" height="30" as="geometry"/>
                </mxCell>
                <mxCell id="12" value="&lt;font style=&quot;font-size: 18px;&quot;&gt;span&lt;/font&gt;" style="whiteSpace=wrap;html=1;fontSize=18;" vertex="1" parent="1">
                    <mxGeometry x="960" y="300" width="60" height="30" as="geometry"/>
                </mxCell>
            </root>
        </mxGraphModel>
    </diagram>
</mxfile>